<svg xmlns="http://www.w3.org/2000/svg" width="18" height="23" viewBox="0 0 18 23">
  <defs>
    <style>
      .a {
        fill: none;
        stroke: #fff;
        stroke-linecap: round;
        stroke-linejoin: round;
      }

      .b {
        fill: #fff;
      }
    </style>
  </defs>
  <g>
    <path class="a" d="M10.03821.62888,9.9197.5H1.41991A.96247.96247,0,0,0,.5,1.5v20a.96247.96247,0,0,0,.91991,1H16.58009a.96247.96247,0,0,0,.91991-1V8.74023l-.11851-.12883Z"/>
    <path class="a" d="M17.5,8.86H10.72944a.96247.96247,0,0,1-.91992-1V.5"/>
    <path class="b" d="M12.37711,14.5564h-2.29a.12857.12857,0,0,1-.12289-.13358V11.93344a.12858.12858,0,0,0-.12289-.13359H8.15867a.12857.12857,0,0,0-.12288.13359v2.48938a.12857.12857,0,0,1-.12289.13358h-2.29A.12858.12858,0,0,0,5.5,14.69v1.82914a.12857.12857,0,0,0,.12289.13358h2.29a.12858.12858,0,0,1,.12289.13359v2.48938a.12856.12856,0,0,0,.12288.13358H9.84136a.12857.12857,0,0,0,.12289-.13358V16.7863a.12858.12858,0,0,1,.12289-.13359h2.29A.12857.12857,0,0,0,12.5,16.51913V14.69A.12858.12858,0,0,0,12.37711,14.5564Z"/>
  </g>
</svg>
