<svg xmlns="http://www.w3.org/2000/svg" width="24.6" height="18.20793" viewBox="0 0 24.6 18.20793">
  <defs>
    <style>
      .a {
        fill: none;
        stroke: #0051b0;
        stroke-linecap: round;
        stroke-linejoin: round;
        stroke-width: 1.2px;
      }

      .b {
        fill: #0051b0;
      }
    </style>
  </defs>
  <g>
    <path class="a" d="M6.90492,6.17448V2.08653A1.4909,1.4909,0,0,1,8.39145.6h14.122A1.4909,1.4909,0,0,1,24,2.08653V11.749a1.4909,1.4909,0,0,1-1.48653,1.48653H18.88634l-.23041,3.11428-3.11428-3.11428H13.06658"/>
    <path class="b" d="M3.694,18.20793l2.37845-2.37845h5.85692a1.142,1.142,0,0,0,1.13719-1.13719V7.31168a1.13719,1.13719,0,0,0-1.13719-1.1372H1.13719A1.13719,1.13719,0,0,0,0,7.31168v7.38061a1.142,1.142,0,0,0,1.13719,1.13719H3.16631Z"/>
  </g>
</svg>
