<svg xmlns="http://www.w3.org/2000/svg" xmlns:xlink="http://www.w3.org/1999/xlink" width="26" height="23.70452" viewBox="0 0 26 23.70452">
  <defs>
    <style>
      .a {
        fill: #0051b0;
      }

      .b, .c, .d {
        fill: none;
        stroke-miterlimit: 10;
      }

      .b {
        stroke: #0051b0;
      }

      .c {
        stroke-linecap: round;
        stroke: url(#a);
      }

      .d {
        stroke: url(#d);
      }
    </style>
    <linearGradient id="a" data-name="New Gradient Swatch" x1="0.5" y1="13.36296" x2="26" y2="13.36296" gradientTransform="translate(0 2)" gradientUnits="userSpaceOnUse">
      <stop offset="0.0023" stop-color="#0051b0"/>
      <stop offset="1" stop-color="#00429d"/>
    </linearGradient>
    <linearGradient id="d" x1="13.67009" y1="4.5" x2="22.67009" y2="4.5" gradientTransform="matrix(1, 0, 0, 1, 0, 0)" xlink:href="#a"/>
  </defs>
  <g>
    <g>
      <g>
        <rect class="a" x="0.5" y="7.52139" width="2.7275" height="15.68312" rx="1"/>
        <g>
          <path class="b" d="M3.2275,11.10124H13.45562a.68187.68187,0,0,1,.68188.68187v2.38656"/>
          <path class="b" d="M9.02344,15.53342l15.14829-3.95173a.68188.68188,0,0,1,.782.35485l.47413.94826a.68187.68187,0,0,1-.298.91133L13.94335,19.54918a.6819.6819,0,0,1-.31185.07549H3.2275"/>
        </g>
      </g>
      <g>
        <rect class="c" x="0.5" y="7.52139" width="2.7275" height="15.68312" rx="1"/>
        <g>
          <path class="c" d="M3.2275,11.10124H13.45562a.68187.68187,0,0,1,.68188.68187v2.38656"/>
          <path class="c" d="M9.02344,15.53342l15.14829-3.95173a.68188.68188,0,0,1,.782.35485l.47413.94826a.68187.68187,0,0,1-.298.91133L13.94335,19.54918a.6819.6819,0,0,1-.31185.07549H3.2275"/>
        </g>
      </g>
    </g>
    <path class="d" d="M22.02965,3.398H19.41253a.14044.14044,0,0,1-.14044-.14044V.64044A.14044.14044,0,0,0,19.13165.5H17.20858a.14045.14045,0,0,0-.14045.14044V3.2576a.14044.14044,0,0,1-.14044.14044H14.31053a.14044.14044,0,0,0-.14044.14044v1.923a.14044.14044,0,0,0,.14044.14044h2.61716a.14044.14044,0,0,1,.14044.14044V8.35956A.14045.14045,0,0,0,17.20858,8.5h1.92307a.14044.14044,0,0,0,.14044-.14044V5.7424a.14044.14044,0,0,1,.14044-.14044h2.61712a.14044.14044,0,0,0,.14044-.14044v-1.923A.14044.14044,0,0,0,22.02965,3.398Z"/>
  </g>
</svg>
