<svg xmlns="http://www.w3.org/2000/svg" width="21.99997" height="16.09393" viewBox="0 0 21.99997 16.09393">
  <defs>
    <style>
      .a {
        fill: #fff;
      }
    </style>
  </defs>
  <g>
    <g>
      <path class="a" d="M15.56247,1A2.51142,2.51142,0,1,1,13.051,3.51141,2.51432,2.51432,0,0,1,15.56247,1m0-1A3.51142,3.51142,0,1,0,19.074,3.51141,3.51134,3.51134,0,0,0,15.56247,0Z"/>
      <path class="a" d="M17.40524,9.7785c1.20752,0,2.385,1.3927,2.86353,3.38678l.46289,1.92865H9.80808l.46289-1.92859c.47851-1.99414,1.656-3.38684,2.86328-3.38684h4.271m0-1h-4.271c-1.70752,0-3.23609,1.65509-3.83569,4.15345l-.759,3.162H22l-.75879-3.162C20.64157,10.43359,19.113,8.7785,17.40524,8.7785Z"/>
    </g>
    <g>
      <circle class="a" cx="7.0228" cy="3.5114" r="3.5114"/>
      <path class="a" d="M0,16.09392H13.46037l-.75887-3.162c-.5996-2.49833-2.12814-4.15345-3.8358-4.15345h-4.271c-1.70766,0-3.2362,1.65512-3.8358,4.15345Z"/>
    </g>
  </g>
</svg>
