<svg xmlns="http://www.w3.org/2000/svg" width="25.2" height="23.7" viewBox="0 0 25.2 23.7">
  <defs>
    <style>
      .a, .b {
        fill: none;
        stroke-linecap: round;
      }

      .a {
        stroke: #000;
        stroke-linejoin: round;
      }

      .b {
        stroke: #0051b0;
        stroke-miterlimit: 10;
        stroke-width: 1.2px;
      }

      .c {
        fill: #0051b0;
      }
    </style>
  </defs>
  <g>
    <g>
      <g>
        <path class="a" d="M.6,4.1a1,1,0,0,1,1-1h22a1,1,0,0,1,1,1v18a1,1,0,0,1-1,1H1.6a1,1,0,0,1-1-1Z"/>
        <line class="a" x1="1.1" y1="9.6" x2="24.1" y2="9.6"/>
        <line class="a" x1="6.1" y1="5.6" x2="6.1" y2="0.6"/>
        <line class="a" x1="19.1" y1="5.6" x2="19.1" y2="0.6"/>
      </g>
      <g>
        <path class="b" d="M.6,4.1a1,1,0,0,1,1-1h22a1,1,0,0,1,1,1v18a1,1,0,0,1-1,1H1.6a1,1,0,0,1-1-1Z"/>
        <line class="b" x1="1.1" y1="9.6" x2="24.1" y2="9.6"/>
        <line class="b" x1="6.1" y1="5.6" x2="6.1" y2="0.6"/>
        <line class="b" x1="19.1" y1="5.6" x2="19.1" y2="0.6"/>
      </g>
    </g>
    <path class="c" d="M16.45956,15.41417H13.84244a.14044.14044,0,0,1-.14044-.14044V12.65657a.14044.14044,0,0,0-.14044-.14044H11.63848a.14044.14044,0,0,0-.14044.14044v2.61716a.14044.14044,0,0,1-.14044.14044H8.74044A.14044.14044,0,0,0,8.6,15.55461v1.923a.14044.14044,0,0,0,.14044.14044H11.3576a.14044.14044,0,0,1,.14044.14044v2.61716a.14044.14044,0,0,0,.14044.14044h1.92308a.14044.14044,0,0,0,.14044-.14044V17.75853a.14044.14044,0,0,1,.14044-.14044h2.61712A.14044.14044,0,0,0,16.6,17.47765v-1.923A.14044.14044,0,0,0,16.45956,15.41417Z"/>
  </g>
</svg>
