<svg xmlns="http://www.w3.org/2000/svg" width="26" height="23.20452" viewBox="0 0 26 23.20452">
  <defs>
    <style>
      .a {
        fill: #0051b0;
      }

      .b, .c {
        fill: none;
        stroke-miterlimit: 10;
      }

      .b {
        stroke: #0051b0;
      }

      .c {
        stroke: #fff;
        stroke-linecap: round;
      }

      .d {
        fill: #fff;
      }
    </style>
  </defs>
  <g>
    <g>
      <g>
        <rect class="a" x="0.5" y="7.02139" width="2.7275" height="15.68312" rx="1"/>
        <g>
          <path class="b" d="M3.2275,10.60124H13.45562a.68187.68187,0,0,1,.68188.68187v2.38656"/>
          <path class="b" d="M9.02344,15.03342l15.14829-3.95173a.68188.68188,0,0,1,.782.35485l.47413.94826a.68187.68187,0,0,1-.298.91133L13.94335,19.04918a.6819.6819,0,0,1-.31185.07549H3.2275"/>
        </g>
      </g>
      <g>
        <rect class="c" x="0.5" y="7.02139" width="2.7275" height="15.68312" rx="1"/>
        <g>
          <path class="c" d="M3.2275,10.60124H13.45562a.68187.68187,0,0,1,.68188.68187v2.38656"/>
          <path class="c" d="M9.02344,15.03342l15.14829-3.95173a.68188.68188,0,0,1,.782.35485l.47413.94826a.68187.68187,0,0,1-.298.91133L13.94335,19.04918a.6819.6819,0,0,1-.31185.07549H3.2275"/>
        </g>
      </g>
    </g>
    <path class="d" d="M22.02965,2.898H19.41253a.14044.14044,0,0,1-.14044-.14044V.14044A.14044.14044,0,0,0,19.13165,0H17.20858a.14045.14045,0,0,0-.14045.14044V2.7576a.14044.14044,0,0,1-.14044.14044H14.31053a.14044.14044,0,0,0-.14044.14044v1.923a.14044.14044,0,0,0,.14044.14044h2.61716a.14044.14044,0,0,1,.14044.14044V7.85956A.14045.14045,0,0,0,17.20858,8h1.92307a.14044.14044,0,0,0,.14044-.14044V5.2424a.14044.14044,0,0,1,.14044-.14044h2.61712a.14044.14044,0,0,0,.14044-.14044v-1.923A.14044.14044,0,0,0,22.02965,2.898Z"/>
  </g>
</svg>
