<svg xmlns="http://www.w3.org/2000/svg" width="26" height="22.73913" viewBox="0 0 26 22.73913">
  <defs>
    <style>
      .a {
        fill: none;
        stroke: #fff;
        stroke-linecap: round;
      }

      .b {
        fill: #fff;
      }
    </style>
  </defs>
  <g>
    <g>
      <path class="a" d="M1.04348,5.93478H.5V20.6087a1.63075,1.63075,0,0,0,1.63043,1.63043H23.86957A1.63075,1.63075,0,0,0,25.5,20.6087V7.56522a1.63075,1.63075,0,0,0-1.63043-1.63044Z"/>
      <path class="a" d="M1.04348,5.93478H.5V2.13043A1.63073,1.63073,0,0,1,2.13043.5h8.02391a1.63107,1.63107,0,0,1,1.4587.90128l1.87282,3.747.39348.78652H1.04348Z"/>
    </g>
    <path class="b" d="M9.33123,9.21033h3.34584c2.25719,0,3.9917.78458,3.9917,3.1938,0,2.3271-1.74783,3.373-3.93732,3.373H11.3687v3.621H9.33123Zm3.26261,4.956c1.40492,0,2.07963-.592,2.07963-1.76225,0-1.18408-.74352-1.583-2.14843-1.583H11.3687v3.34528Z"/>
  </g>
</svg>
