<svg xmlns="http://www.w3.org/2000/svg" width="22" height="19.89597" viewBox="0 0 22 19.89597">
  <defs>
    <style>
      .a {
        fill: #0051b0;
      }
    </style>
  </defs>
  <g>
    <ellipse class="a" cx="13.34339" cy="2.84479" rx="2.89372" ry="2.01142" transform="translate(7.17744 15.01524) rotate(-75.16692)"/>
    <ellipse class="a" cx="6.99994" cy="2.98268" rx="1.88315" ry="2.70918" transform="translate(-0.60654 2.79031) rotate(-21.63017)"/>
    <ellipse class="a" cx="2.11578" cy="7.55608" rx="1.80275" ry="2.59351" transform="translate(-4.0746 2.73424) rotate(-36.44132)"/>
    <ellipse class="a" cx="19.38565" cy="7.5728" rx="2.96984" ry="2.20182" transform="translate(0.32315 15.92575) rotate(-45)"/>
    <path class="a" d="M15.96522,12.09147a3.77122,3.77122,0,0,1-.34519-.94673,5.71235,5.71235,0,0,0-.96775-2.26587c-1.47638-1.9806-4.481-2.24319-6.59251-1.10674a5.62364,5.62364,0,0,0-2.5123,2.82065c-.22269.54929-.21655,1.13907-.62313,1.58951-.372.41218-.88733.664-1.27183,1.06325a3.92923,3.92923,0,0,0,2.84595,6.64933,3.15431,3.15431,0,0,0,1.50636-.31621c.31893-.18309.49154-.515.80107-.70334a3.19967,3.19967,0,0,1,2.3894-.13551c.78119.19108,1.273.74889,2.01943.97953a3.93985,3.93985,0,0,0,4.9272-2.60116,3.67209,3.67209,0,0,0-.72614-3.611c-.38933-.33426-.792-.45716-1.12613-.90243A3.79341,3.79341,0,0,1,15.96522,12.09147Z"/>
  </g>
</svg>
