<svg xmlns="http://www.w3.org/2000/svg" width="23.2" height="28.21652" viewBox="0 0 23.2 28.21652">
  <defs>
    <style>
      .a {
        fill: none;
        stroke: #0051b0;
        stroke-linecap: round;
        stroke-linejoin: round;
        stroke-width: 1.2px;
      }

      .b {
        fill: #0051b0;
      }
    </style>
  </defs>
  <g>
    <path class="a" d="M22.6,16.66529c-7.33325-3.60589-14.66675,3.6059-22,0V1.64091c7.33325,3.60589,14.66675-3.60584,22,0Z"/>
    <path class="b" d="M15.79979,7.53306H13.18268a.14045.14045,0,0,1-.14045-.14044V4.77546a.14043.14043,0,0,0-.14044-.14044H10.97872a.14043.14043,0,0,0-.14044.14044V7.39262a.14044.14044,0,0,1-.14044.14044H8.08068a.14045.14045,0,0,0-.14045.14044v1.923a.14044.14044,0,0,0,.14045.14044h2.61716a.14044.14044,0,0,1,.14044.14044v2.61717a.14044.14044,0,0,0,.14044.14044h1.92307a.14044.14044,0,0,0,.14044-.14044V9.87741a.14045.14045,0,0,1,.14045-.14044h2.61711a.14043.14043,0,0,0,.14044-.14044V7.6735A.14044.14044,0,0,0,15.79979,7.53306Z"/>
    <line class="a" x1="0.6" y1="16.6653" x2="0.6" y2="27.61652"/>
  </g>
</svg>
